HIERARCHY
ROOT Hips
{
	OFFSET 0.000000 0.000000 0.000000
	CHANNELS 6 Xposition Yposition Zposition Zrotation Yrotation Xrotation 
	JOINT LowerBack
	{
		OFFSET 0.000000 0.000000 0.000000
		CHANNELS 3 Zrotation Yrotation Xrotation
		JOINT Spine
		{
			OFFSET 0.028270 2.035590 -0.193380
			CHANNELS 3 Zrotation Yrotation Xrotation
			JOINT Spine1
			{
				OFFSET 0.056720 2.048850 -0.042750
				CHANNELS 3 Zrotation Yrotation Xrotation
				JOINT Neck
				{
					OFFSET 0.000000 0.000000 0.000000
					CHANNELS 3 Zrotation Yrotation Xrotation
					JOINT Neck1
					{
						OFFSET -0.054170 1.746240 0.172020
						CHANNELS 3 Zrotation Yrotation Xrotation
						JOINT Head
						{
							OFFSET 0.104070 1.761360 -0.123970
							CHANNELS 3 Zrotation Yrotation Xrotation
							End Site
							{
								OFFSET 0.000000 0.000000 0.000000
							}
						}
					}
				}
				JOINT LeftShoulder
				{
					OFFSET 0.000000 0.000000 0.000000
					CHANNELS 3 Zrotation Yrotation Xrotation
					JOINT LeftArm
					{
						OFFSET 3.362410 1.200890 -0.311210
						CHANNELS 3 Zrotation Yrotation Xrotation
						JOINT LeftForeArm
						{
							OFFSET 4.983000 -0.000000 -0.000000
							CHANNELS 3 Zrotation Yrotation Xrotation
							JOINT LeftHand
							{
								OFFSET 3.483560 -0.000000 -0.000000
								CHANNELS 3 Zrotation Yrotation Xrotation
								JOINT LeftFingerBase
								{
									OFFSET 0.000000 0.000000 0.000000
									CHANNELS 3 Zrotation Yrotation Xrotation
									JOINT LeftHandIndex1
									{
										OFFSET 0.715260 -0.000000 -0.000000
										CHANNELS 3 Zrotation Yrotation Xrotation
										End Site
										{
											OFFSET 0.000000 0.000000 0.000000
										}
									}
								}
								JOINT LThumb
								{
									OFFSET 0.000000 0.000000 0.000000
									CHANNELS 3 Zrotation Yrotation Xrotation
									End Site
									{
										OFFSET 0.000000 0.000000 0.000000
									}
								}
							}
						}
					}
				}
				JOINT RightShoulder
				{
					OFFSET 0.000000 0.000000 0.000000
					CHANNELS 3 Zrotation Yrotation Xrotation
					JOINT RightArm
					{
						OFFSET -3.136600 1.374050 -0.404650
						CHANNELS 3 Zrotation Yrotation Xrotation
						JOINT RightForeArm
						{
							OFFSET -5.241900 -0.000000 -0.000000
							CHANNELS 3 Zrotation Yrotation Xrotation
							JOINT RightHand
							{
								OFFSET -3.444170 -0.000000 -0.000000
								CHANNELS 3 Zrotation Yrotation Xrotation
								JOINT RightFingerBase
								{
									OFFSET 0.000000 0.000000 0.000000
									CHANNELS 3 Zrotation Yrotation Xrotation
									JOINT RightHandIndex1
									{
										OFFSET -0.622530 -0.000000 -0.000000
										CHANNELS 3 Zrotation Yrotation Xrotation
										End Site
										{
											OFFSET 0.000000 0.000000 0.000000
										}
									}
								}
								JOINT RThumb
								{
									OFFSET 0.000000 0.000000 0.000000
									CHANNELS 3 Zrotation Yrotation Xrotation
									End Site
									{
										OFFSET 0.000000 0.000000 0.000000
									}
								}
							}
						}
					}
				}
			}
		}
	}
}
}
MOTION
Frames: 12
Frame Time: 0.008333
-10.357655 16.514824 -1.141629 -15.173479 82.160029 3.902991 -4.607579 0.798041 1.288227 -1.618905 1.057351 -2.495405 -5.406929 0.996110 1.651406 8.071911 -3.662927 -6.153914 -2.775893 -0.220106 0.252252 0.000000 0.000000 0.000000 -9.039965 12.133493 2.155957 -59.510012 11.159819 14.336278 -4.273324 -30.475727 -0.026021 -12.983175 4.941128 -0.567990 -0.090846 -0.080476 -0.000000 0.000000 0.000000 0.000000 0.000000 0.000000 0.000000 11.345819 0.550008 2.258320 39.444971 29.351027 21.049595 1.685310 59.966969 0.029663 10.923834 8.086580 0.802516 -0.087764 -0.221771 -0.000000 0.000000 0.000000 0.000000 0.000000 0.000000 0.000000 
-10.141539 16.522256 -1.149955 -11.309256 82.029723 7.539682 -5.317208 0.721562 1.394289 -1.764363 1.017849 -2.492430 -5.466210 0.954940 1.601411 8.232356 -3.605904 -6.096045 -2.817500 -0.223521 0.263212 0.000000 0.000000 0.000000 -8.891922 11.855359 2.182812 -59.649360 10.744351 13.761681 -4.316203 -29.912032 -0.025459 -12.874230 4.990811 -0.568275 -0.093185 -0.077470 -0.000000 0.000000 0.000000 0.000000 0.000000 0.000000 0.000000 11.651611 0.558360 2.236026 40.207662 28.680142 21.233294 1.733629 59.477446 0.029518 10.867209 8.085732 0.797638 -0.082903 -0.218243 -0.000000 0.000000 0.000000 0.000000 0.000000 0.000000 0.000000 
-9.928314 16.532613 -1.158940 -7.836818 81.920139 10.800791 -5.954449 0.630768 1.502283 -1.895016 0.960056 -2.487918 -5.523097 0.895572 1.551290 8.361639 -3.541655 -6.023708 -2.857583 -0.226983 0.278065 0.000000 0.000000 0.000000 -8.738672 11.540539 2.210725 -59.759795 10.300924 13.313609 -4.352615 -29.439534 -0.024857 -12.776298 5.040549 -0.568960 -0.095135 -0.074310 -0.000000 0.000000 0.000000 0.000000 0.000000 0.000000 0.000000 11.917485 0.557338 2.207614 41.014003 28.003496 21.464299 1.784556 58.932524 0.029302 10.845835 8.090291 0.795755 -0.078494 -0.214019 -0.000000 0.000000 0.000000 0.000000 0.000000 0.000000 0.000000 
-9.718004 16.545711 -1.168351 -4.637501 81.832758 13.807897 -6.529634 0.525001 1.607577 -2.012960 0.884016 -2.480613 -5.577697 0.818183 1.508441 8.465868 -3.480708 -5.944134 -2.896155 -0.230394 0.294814 0.000000 0.000000 0.000000 -8.574132 11.220776 2.237771 -59.837029 9.801264 13.018061 -4.382557 -29.062436 -0.024187 -12.684596 5.081144 -0.568842 -0.096708 -0.071000 -0.000000 0.000000 0.000000 0.000000 0.000000 0.000000 0.000000 12.155074 0.536139 2.172278 41.844205 27.343906 21.747008 1.836816 58.336312 0.028996 10.859427 8.095971 0.796570 -0.074624 -0.209087 -0.000000 0.000000 0.000000 0.000000 0.000000 0.000000 0.000000 
-9.510445 16.561454 -1.179035 -1.937718 81.750724 16.338723 -7.002890 0.413535 1.704006 -2.110516 0.797136 -2.472682 -5.630655 0.730097 1.469546 8.537522 -3.418049 -5.855204 -2.932393 -0.233747 0.314523 0.000000 0.000000 0.000000 -8.418620 10.893489 2.261790 -59.875771 9.275470 12.860289 -4.403833 -28.816415 -0.023473 -12.597860 5.109338 -0.567523 -0.097845 -0.067696 -0.000000 0.000000 0.000000 0.000000 0.000000 0.000000 0.000000 12.349466 0.505700 2.131385 42.694705 26.691054 22.070810 1.890345 57.694889 0.028608 10.910396 8.096782 0.799580 -0.071286 -0.203432 -0.000000 0.000000 0.000000 0.000000 0.000000 0.000000 0.000000 
-9.305526 16.579951 -1.191217 0.279997 81.671840 18.409279 -7.373576 0.298558 1.790970 -2.187267 0.701765 -2.463653 -5.682061 0.633715 1.437189 8.579408 -3.359026 -5.762094 -2.966203 -0.236966 0.335868 0.000000 0.000000 0.000000 -8.277561 10.576948 2.281900 -59.871640 8.713905 12.840915 -4.416308 -28.711655 -0.022704 -12.512733 5.117603 -0.564100 -0.098582 -0.064430 -0.000000 0.000000 0.000000 0.000000 0.000000 0.000000 0.000000 12.504902 0.463082 2.085406 43.552264 26.053018 22.428554 1.944437 57.013620 0.028128 10.993392 8.088577 0.804087 -0.068430 -0.197103 -0.000000 0.000000 0.000000 0.000000 0.000000 0.000000 0.000000 
-9.103179 16.601417 -1.204591 2.172140 81.602641 20.171196 -7.662860 0.177923 1.872119 -2.247164 0.596949 -2.452978 -5.732247 0.528086 1.410685 8.599599 -3.299959 -5.666706 -2.998009 -0.240044 0.358169 0.000000 0.000000 0.000000 -8.145773 10.278810 2.299792 -59.821147 8.113444 12.949152 -4.420956 -28.754533 -0.021872 -12.426400 5.100846 -0.557972 -0.099009 -0.061193 -0.000000 0.000000 0.000000 0.000000 0.000000 0.000000 0.000000 12.631010 0.413349 2.034286 44.411776 25.416224 22.796854 1.998067 56.306247 0.027557 11.107097 8.063376 0.809092 -0.066075 -0.190177 0.000000 0.000000 0.000000 0.000000 0.000000 0.000000 0.000000 
-8.903243 16.626155 -1.219622 3.662982 81.537194 21.546668 -7.858581 0.056371 1.948591 -2.287873 0.486777 -2.440902 -5.781735 0.417356 1.389129 8.598818 -3.248442 -5.572502 -3.027791 -0.242944 0.380666 0.000000 0.000000 0.000000 -8.035709 9.997772 2.314868 -59.720687 7.485374 13.158903 -4.417322 -28.958091 -0.020986 -12.338093 5.056110 -0.548741 -0.099150 -0.058043 -0.000000 0.000000 0.000000 0.000000 0.000000 0.000000 0.000000 12.728926 0.352310 1.980433 45.263635 24.787895 23.167197 2.051492 55.571880 0.026897 11.235077 8.024113 0.813592 -0.063955 -0.182813 0.000000 0.000000 0.000000 0.000000 0.000000 0.000000 0.000000 
-8.705602 16.654536 -1.236334 4.780751 81.475720 22.561420 -7.965872 -0.064293 2.022457 -2.310628 0.373216 -2.427669 -5.831306 0.303503 1.370766 8.582408 -3.202286 -5.481140 -3.055908 -0.245668 0.402882 0.000000 0.000000 0.000000 -7.947282 9.735435 2.328628 -59.568903 6.830229 13.446524 -4.406318 -29.319569 -0.020041 -12.247096 4.980926 -0.536307 -0.099095 -0.054948 -0.000000 0.000000 0.000000 0.000000 0.000000 0.000000 0.000000 12.804127 0.285164 1.924644 46.104341 24.155237 23.514213 2.104377 54.818481 0.026158 11.369032 7.969136 0.816792 -0.061969 -0.175164 0.000000 0.000000 0.000000 0.000000 0.000000 0.000000 0.000000 
-8.510179 16.686885 -1.254518 5.576160 81.420007 23.263847 -7.995069 -0.182965 2.096002 -2.317874 0.257753 -2.413648 -5.882147 0.188011 1.353015 8.557394 -3.157953 -5.393014 -3.082967 -0.248251 0.424622 0.000000 0.000000 0.000000 -7.875925 9.487997 2.343051 -59.365912 6.150828 13.785866 -4.389094 -29.832426 -0.019038 -12.154395 4.875541 -0.520568 -0.098929 -0.051862 -0.000000 0.000000 0.000000 0.000000 0.000000 0.000000 0.000000 12.864575 0.218034 1.867752 46.932592 23.501220 23.808343 2.156417 54.055423 0.025368 11.501641 7.897767 0.818191 -0.060036 -0.167408 0.000000 0.000000 0.000000 0.000000 0.000000 0.000000 0.000000 
-8.316943 16.723393 -1.274095 6.027444 81.369904 23.631831 -7.945832 -0.296735 2.169425 -2.309932 0.143118 -2.399385 -5.935197 0.073623 1.334499 8.528161 -3.118676 -5.309570 -3.109247 -0.250701 0.445552 0.000000 0.000000 0.000000 -7.819655 9.249850 2.358891 -59.113618 5.452238 14.149151 -4.366400 -30.487291 -0.017980 -12.062737 4.741482 -0.502225 -0.098704 -0.048753 -0.000000 0.000000 0.000000 0.000000 0.000000 0.000000 0.000000 12.915307 0.150077 1.811226 47.745564 22.821972 24.030796 2.207936 53.283605 0.024546 11.619685 7.816191 0.817290 -0.057971 -0.159752 0.000000 0.000000 0.000000 0.000000 0.000000 0.000000 0.000000 
-8.125745 16.764100 -1.294790 6.143333 81.327754 23.673802 -7.823515 -0.403976 2.243390 -2.288289 0.031066 -2.385286 -5.991590 -0.037910 1.313837 8.500265 -3.084175 -5.230892 -3.135216 -0.253055 0.465620 0.000000 0.000000 0.000000 -7.770704 9.015633 2.377320 -58.815381 4.736875 14.515414 -4.339235 -31.269424 -0.016871 -11.976473 4.582398 -0.481580 -0.098467 -0.045575 -0.000000 0.000000 0.000000 0.000000 0.000000 0.000000 0.000000 12.962961 0.083234 1.755847 48.542756 22.108561 24.159287 2.259056 52.506963 0.023721 11.715545 7.729328 0.814089 -0.055689 -0.152379 0.000000 0.000000 0.000000 0.000000 0.000000 0.000000 0.000000 
